<svg viewBox="0 0 191 191" xmlns="http://www.w3.org/2000/svg" fill-rule="evenodd" clip-rule="evenodd" stroke-linejoin="round" stroke-miterlimit="2"><path d="M163.562 47.585H143.12V27.146l20.44 20.44zm-34.544 52.873a34.055 34.055 0 0 1-5.247 14.034L76.69 67.412a34.103 34.103 0 0 1 14.036-5.246l38.292 38.292zm-28.89 28.888L61.837 91.054a34.071 34.071 0 0 1 5.246-14.034l47.082 47.081a34.084 34.084 0 0 1-14.037 4.768v.477zm-52.395 34.066l-20.44-20.439h20.44v20.44zM188.84 42.747a6.814 6.814 0 0 0-9.636-.039l-.04.04a5.888 5.888 0 0 1-.954.885 5.857 5.857 0 0 0-.885-1.362l-28.89-28.753a5.829 5.829 0 0 0-1.362-.886c.278-.333.574-.652.886-.954a6.84 6.84 0 0 0 0-9.675 6.844 6.844 0 0 0-9.676 0c-8.79 8.79-8.79 19.828-8.79 30.594v14.988H95.428c-26.341 0-47.694 21.354-47.694 47.694v21.19a6.814 6.814 0 0 0 13.628 0v-7.087l19.963 19.964H32.743c-10.696 0-21.802 0-30.728 8.79a6.814 6.814 0 0 0-.04 9.634l.04.041a6.817 6.817 0 0 0 9.674 0c.304-.313.622-.608.954-.887.232.493.529.953.887 1.363l28.889 28.753c.41.358.87.655 1.363.886-.258.35-.556.67-.887.952a6.817 6.817 0 0 0-.038 9.638l.038.038a6.814 6.814 0 0 0 9.637.04l.039-.04c8.79-8.789 8.79-19.826 8.79-30.59v-14.99h34.066c26.34 0 47.694-21.354 47.694-47.695V74.84a6.815 6.815 0 0 0-6.813-6.816 6.815 6.815 0 0 0-6.814 6.816v6.335L109.53 61.212h48.579c10.834 0 21.803 0 30.73-8.789 2.66-2.66 2.642-6.993-.017-9.656-.002 0-.002 0 .017-.02" fill="#d43857" fill-rule="nonzero"/></svg>