<svg viewBox="0 0 513 513" xmlns="http://www.w3.org/2000/svg" fill-rule="evenodd" clip-rule="evenodd" stroke-linejoin="round" stroke-miterlimit="2"><path d="M475.433 274.983L265.716 85.746a14.493 14.493 0 0 0-19.426 0l-75.954 68.536v-3.604c0-8.006-6.491-14.499-14.499-14.499H95.771c-8.008 0-14.499 6.493-14.499 14.499v83.969L36.57 274.984a14.498 14.498 0 0 0 9.713 25.263h38.439v197.256c0 8.006 6.491 14.499 14.499 14.499h313.558c8.006 0 14.499-6.493 14.499-14.499V300.245h38.441a14.5 14.5 0 0 0 9.714-25.262zM110.27 165.177h31.067v15.269L110.27 208.48v-43.303zm302.51 106.071c-8.006 0-14.499 6.493-14.499 14.499v197.256h-284.56v-182.81h204.098c8.006 0 14.499-6.493 14.499-14.499s-6.493-14.499-14.499-14.499H98.43c-.351 0-.693.028-1.037.052h-13.4L256 116.038l172.007 155.209H412.78v.001z" fill="#d43857" fill-rule="nonzero"/><path d="M376.891 282.866a15.185 15.185 0 0 0-.826-2.727 14.676 14.676 0 0 0-1.334-2.494 14.802 14.802 0 0 0-1.812-2.204c-3.364-3.364-8.38-4.917-13.078-3.958-.929.174-1.843.464-2.711.826a14.29 14.29 0 0 0-2.508 1.334 13.9 13.9 0 0 0-2.204 1.798 13.855 13.855 0 0 0-1.798 2.204 14.747 14.747 0 0 0-1.334 2.494 15.104 15.104 0 0 0-.826 2.727c-.188.928-.29 1.885-.29 2.826 0 .942.102 1.901.29 2.827.188.926.465 1.844.828 2.727.362.871.812 1.712 1.334 2.495a13.9 13.9 0 0 0 1.798 2.204 13.855 13.855 0 0 0 2.204 1.798c.783.52 1.624.971 2.508 1.334.87.362 1.782.652 2.711.841a14.3 14.3 0 0 0 2.826.274 14.6 14.6 0 0 0 10.251-4.248 13.855 13.855 0 0 0 1.798-2.204c.522-.783.971-1.624 1.334-2.495.362-.883.652-1.798.841-2.726.188-.928.274-1.885.274-2.827-.002-.941-.089-1.9-.276-2.826z" fill="#d43857" fill-rule="nonzero"/><path d="M342.731 370.053c-1.463-30.5-24.19-54.39-51.744-54.39-14.452 0-26.672 6.192-34.832 11.863-8.057-5.707-20.208-11.863-35.139-11.863a47.303 47.303 0 0 0-19.502 4.209c-18.084 8.148-31.142 27.306-32.238 50.181-.86 17.964 5.366 30.764 10.123 38.828 10.291 17.446 50.616 45.151 65.149 54.783a595.95 595.95 0 0 0 3.62 2.378 14.49 14.49 0 0 0 7.9 2.34c2.748 0 5.497-.78 7.898-2.339 9.458-6.142 57.226-37.77 68.649-57.175 4.752-8.076 10.972-20.887 10.116-38.815zm-28.953 4.836a34.483 34.483 0 0 1-1.45 8.843c-1.006 3.355-2.53 6.736-4.705 10.429-3.726 6.33-18.122 18.229-33.55 29.592a565.399 565.399 0 0 1-6.068 4.406c-4.054 2.9-8.09 5.71-11.941 8.321a558.888 558.888 0 0 1-6.406-4.405c-20.665-14.428-41.043-30.735-45.286-37.926-4.682-7.937-6.516-14.727-6.134-22.707.708-14.767 10.925-26.781 22.776-26.781 13.498 0 24.116 11.413 24.151 11.448a14.496 14.496 0 0 0 10.837 4.865c.106 0 .209-.014.315-.016 3.884-.044 7.567-1.705 10.236-4.537.11-.117 11.661-11.761 24.435-11.761 11.853 0 22.07 12.014 22.778 26.779.048 1.009.062 1.994.042 2.962-.004.167-.024.324-.03.488z" fill="#d43857" fill-rule="nonzero"/><path d="M192.796 43.302C191.634 19.021 173.377 0 151.234 0c-10.194 0-18.959 3.854-25.3 7.844C119.641 3.832 110.884 0 100.375 0c-22.144 0-40.4 19.021-41.564 43.302-.676 14.116 4.187 24.126 7.903 30.424 8.486 14.384 41.364 36.437 51.238 42.854a14.49 14.49 0 0 0 7.9 2.34c2.748 0 5.495-.78 7.896-2.339 9.843-6.391 42.618-28.371 51.152-42.867 3.713-6.309 8.571-16.323 7.896-30.412zM159.91 59.003c-2.914 4.954-18.638 17.374-34.058 27.976-15.488-10.644-31.268-23.08-34.162-27.986-3.02-5.121-4.155-9.265-3.913-14.303.407-8.507 6.177-15.692 12.598-15.692 6.568 0 12.726 5.02 14.635 7.039 2.669 3.109 6.43 4.825 10.529 4.93 4.151.107 7.987-1.666 10.815-4.666 1.366-1.45 8.309-7.305 14.879-7.305 6.422 0 12.192 7.186 12.598 15.692.24 5.027-.896 9.174-3.921 14.315z" fill="#d43857" fill-rule="nonzero"/></svg>