<svg viewBox="0 0 877 1200" xmlns="http://www.w3.org/2000/svg" fill-rule="evenodd" clip-rule="evenodd" stroke-linejoin="round" stroke-miterlimit="2"><g fill="#d43857" fill-rule="nonzero"><path d="M379.5 1199.3c-11.2-.7-50.8-6-66-8.7-16.7-3.1-20.3-3.8-30.5-6.2-92.4-21.9-180.6-64.9-265.4-129.4-7.6-5.8-14.7-11.1-15.7-11.9-1.8-1.3-1.9-3.7-1.9-55C0 883.6 3.6 849.5 20.2 798c21.6-66.9 53.9-120.1 107.5-176.7 21-22.2 33.7-31.4 50.3-36 5.5-1.5 10.4-1.8 31.5-1.8 24.3 0 32.2.7 39.8 3.7 3.1 1.2 16.5 17 57.2 67.8 61.7 76.9 103.6 128.1 121.3 148.2l9.4 10.7 4.5-5.2c10.1-11.9 101.3-140.2 145.1-204.2 8.3-12.1 15.3-21.3 16.5-21.8 1.2-.5 8.7-1.8 16.7-2.9 11.2-1.6 20.2-2.1 40-2.2l25.5-.1 6.9 3.3c19.1 9 45 30.3 67.8 55.8 40.2 45.1 66.1 88.2 87.8 146.2 12.5 33.5 18.9 60.3 22.4 93.8 2 18.5 6.6 127.6 6.6 154v8.2l-16.2 12.4c-46.7 35.8-74.6 54.2-110.7 73.3-63.2 33.5-131.3 56.2-204.1 67.9-25.4 4.1-37.5 5.5-57.5 6.6-17 .9-96.3 1.1-109 .3zm115.6-46.8c100.4-10.4 188.7-39.9 268.9-90 37.5-23.5 52.2-34.3 60.1-44.2l5.9-7.4v-25.7c-.1-71.3-3.4-120.1-10-146.4-16.2-64.5-53.7-131.9-99.1-178-9.6-9.8-12.8-11.2-13-5.5-.4 10.8 2.3 44.5 4.1 50.6 1.5 5.4 3.5 7.7 10.2 11.7 16.2 9.6 27.4 19.9 32.1 29.4 2.8 5.6 5.7 17.5 11.2 45.7 4.3 22.4 9.8 47.9 16.5 76.3 20 85 21.2 96.6 13.5 123.5-9.4 32.6-27.7 47.7-59.6 49.2-7.5.4-13.3.2-16.6-.6-12.7-3.1-21.6-18.6-16.9-29.4 3-7.1 13.3-13.5 25.2-15.6 9-1.7 12.4-2.8 16.5-5.6 5.8-4.1 6.4-6.7 6.3-26-.1-20.8-.9-25.5-11.6-69.5-8.3-34-10.4-43.1-14.2-62-3.4-16.7-4.1-20.3-7.6-43.5-2.8-18-4.4-21-14-25.8-9.8-4.9-14.8-5.5-22.3-2.7-6.6 2.5-11.4 6.2-12.9 9.9-1.5 4-4.4 16.5-6.3 27.6-4.2 23.8-10.9 55.6-15.9 75.5-3 11.8-8 31.3-11 43.3-7.2 28.1-9.3 43-7.7 54.1 2.2 15.9 7.3 21.2 25.1 25.9 17.7 4.7 21.7 7.8 24.1 18.4 1.9 8.7-.4 16.8-6.1 21.7-3.1 2.6-3.2 2.6-20.9 2.6-13.3 0-19.1-.4-23.2-1.6-15.7-4.6-30.7-16.9-37.2-30.5-7.2-14.9-10.2-32.1-9.4-53.7.6-17.1 1.6-22.4 14.3-72 9.8-38.7 15-62.2 19.4-87.7 7.8-45.6 8.8-48.5 22.4-62 6.2-6.1 10.5-9.3 18.3-13.5l10.2-5.5-.5-5.5c-.2-3-1.1-14.7-1.9-26-2.1-27.9-4.4-49.5-5.6-52.8-1.7-4.5-4.9-7.2-8.5-7.2-6.6 0-20.1 15.9-48.5 57-6.3 9.1-13.7 19.9-16.6 24-2.8 4.1-8.7 12.7-13 19-4.3 6.3-15.2 22.3-24.2 35.5s-24.9 36.6-35.4 52c-42.1 61.8-63.5 92.3-67.5 95.8-2 1.8-2.1 1.6-10.4-8.5C423.2 886.3 379.1 830 316 749c-33.8-43.4-76.9-97.4-84.7-106.3-4.7-5.2-4.4-5.4-5.8 3.4-1.1 7-3.4 63.8-4.6 114.4-1.3 53.8-.6 79.4 2.4 86.6 1 2.6 4.7 5.7 14.6 12.8 7.2 5.2 15.9 12.2 19.2 15.5 11.4 11.5 15.8 25.2 14.5 45.1-1 16.7-4.3 24.1-15.5 35.5-7.9 8-15.4 13.1-23.6 16.1-8.3 3.1-29.2 3.3-37.5.5-10.7-3.7-17.4-7.7-24.7-15.1-12.3-12.3-18.1-28-16.9-46 .8-13.9 5.7-25.6 17-40.9l5.3-7.1-1.1-13.5c-1.6-20.5-1.3-88.1.7-138.5 1.8-47.6 1.4-63.2-1.7-66.3-2.2-2.2-5-.5-14.8 8.7-26.3 24.7-54.7 64.4-73.7 102.9-15.4 31.5-30.1 75-34.5 102.3-3.7 23.3-7.5 84.7-8.9 144.4l-.2 11 11.5 8.2c81.6 58.9 156.9 94.7 242.5 115.2 33.8 8.2 78.9 15 109 16.5 15.6.8 76.9-.5 90.6-1.9zM220.2 923c3.9-4.2 5.3-10.1 3.3-14-1.6-3.2-8-7-11.7-7-2.1 0-13.8 10.8-13.8 12.8 0 .5 1.7 2.8 3.7 5.1 6.5 7.7 13.3 8.8 18.5 3.1z"/><path d="M429.5 625c-32.1-4.5-73.4-24.7-105.3-51.5-26.2-22-49.9-49.9-70.4-82.8-21.4-34.5-32.8-63.3-46.4-116.8-3.1-12.3-6.8-25.5-8.1-29.4-1.4-3.8-8.3-18.2-15.3-32-14.9-29.2-22.9-47-26.7-59.2-2.4-8-2.7-10.6-3.1-29.8-.5-24.3.3-29.9 5.4-40.2 9.1-18.2 26-33.7 54.4-49.9 12.8-7.4 19.8-15 30.8-33.7 11.5-19.4 18.8-29.3 30.6-41.5C306.6 25.9 346.5 6.3 391 1.5c15.7-1.7 52.1-2 67.1-.5 37.3 3.7 77.2 13.2 111.4 26.7 66.4 26.1 124.6 77.4 144.8 127.5 7.1 17.5 8.1 23.5 8.1 49.8 0 31.4-1.7 41.1-13.9 80.5-3.1 9.9-7.5 23.9-9.7 31-7.2 23.6-15.7 53.7-21.3 75.7-9 35.3-15.9 53.6-32.2 84.8-21.2 40.6-46.9 73.2-78.8 100-28.2 23.7-59.6 40.6-86.5 46.5-8.7 1.9-41 2.9-50.5 1.5zm62.3-52.1c37.5-19.5 64.8-43.3 90.2-78.9 26.8-37.4 41.6-69.5 53.6-116l4.5-17.5-21.3-21c-40.1-39.5-71.4-66.3-88.8-75.8-12.1-6.7-35.2-10.1-52.5-7.9-11.4 1.5-21.8 5.2-57.5 20.5-33.1 14.1-42.7 17.6-55 20.3-10.2 2.1-44.6 3-56.5 1.5-4.9-.7-10.9-1.5-13.2-1.8-7.1-.9-8.5 1.3-15.4 25.7-4.4 15.9-10.7 25.8-22.2 35-5.6 4.4-5.6 4.4-5.1 9 2.3 20.9 11.5 49.6 23.1 72.2 15.5 30.5 37.7 60.4 64.7 87.3 31.3 31.1 60.4 48.6 89.6 54 4.5.8 15.2 1.4 26.9 1.4l19.3.1 15.6-8.1zM236 298.6c.5-1.3 1.8-10 3-19.2 4.9-38.7 10.4-47.6 29.5-47.6 8.9 0 10.6.7 24.1 9.8l11.1 7.5 61.8 1.2 13-6.3c60.2-28.9 68.4-32.3 86.8-35.6 13.8-2.5 39.3-2.3 51.9.4 31.6 6.9 54.6 21.4 104.2 65.5 26.2 23.3 30.7 26.9 32.3 25.5 5.4-4.5 15.1-34.2 18.7-57.4 2.1-13.3 2.1-39.8 0-54.6-1.9-13.6-5-21.7-13.5-34.7-18.9-29.3-46.1-53.2-81.9-72-32.1-16.8-78.2-30.8-112.5-34.2-13.9-1.3-67.6-.6-79.7 1.1-32 4.5-66.3 25.1-86.3 52-9 12-14.1 21.3-21.6 38.8-3.4 8.1-7 15.8-8 17.2-1 1.6-7.2 5.3-15.6 9.5-24.1 12-36.4 20.6-44.3 31.1-8.7 11.5-11.6 21.8-10 34.8 1.5 11.9 3.3 16.9 15.2 40.8 13.1 26.3 19.1 33.5 21.8 26.4z"/></g></svg>